<svg xmlns="http://www.w3.org/2000/svg" xmlns:xlink="http://www.w3.org/1999/xlink" width="1400" zoomAndPan="magnify" viewBox="0 0 1050 1049.999947" height="1400" preserveAspectRatio="xMidYMid meet" version="1.0"><defs><clipPath id="3fabe30717"><path d="M 487 545 L 629.578125 545 L 629.578125 652 L 487 652 Z M 487 545 " clip-rule="nonzero"/></clipPath><clipPath id="d4b4ab04a6"><path d="M 388 374.699219 L 616 374.699219 L 616 493 L 388 493 Z M 388 374.699219 " clip-rule="nonzero"/></clipPath></defs><rect x="-105" width="1260" fill="#ffffff" y="-104.999995" height="1259.999936" fill-opacity="1"/><rect x="-105" width="1260" fill="#223f3f" y="-104.999995" height="1259.999936" fill-opacity="1"/><path fill="#669439" d="M 482.527344 641.21875 C 480.539062 635.851562 478.320312 630.507812 475.027344 625.757812 C 471.777344 620.921875 467.871094 616.582031 463.585938 612.792969 C 462.066406 611.46875 460.503906 610.214844 458.929688 608.988281 C 458.914062 608.976562 458.90625 608.957031 458.914062 608.9375 C 463.632812 591.71875 460.828125 565.507812 460.46875 562.382812 C 460.460938 562.324219 460.378906 562.328125 460.367188 562.390625 C 458.242188 572.742188 451.75 573.558594 451.128906 573.609375 C 451.097656 573.613281 451.078125 573.589844 451.082031 573.5625 C 451.582031 545.285156 426.195312 521.351562 426.195312 521.351562 C 412.140625 507.214844 406.773438 489.132812 410.039062 466.574219 C 410.042969 466.535156 410.003906 466.5 409.964844 466.515625 C 380.78125 478.371094 384.191406 514.96875 384.375 516.753906 C 384.378906 516.792969 384.351562 516.8125 384.3125 516.800781 C 381.234375 515.882812 378.363281 508.300781 377.941406 507.136719 C 377.921875 507.09375 377.855469 507.101562 377.84375 507.148438 C 365.601562 551.378906 394.675781 591.867188 395.914062 593.214844 C 395.933594 593.234375 395.925781 593.257812 395.902344 593.273438 C 390.78125 596.957031 382.851562 592.773438 381.128906 591.785156 C 381.074219 591.75 381.027344 591.828125 381.070312 591.871094 C 422.730469 634.59375 447.339844 617.046875 450.722656 615.050781 C 450.757812 615.03125 450.75 614.996094 450.710938 614.976562 C 404.40625 589.726562 402.789062 539.28125 402.765625 533.230469 C 402.765625 533.164062 402.851562 533.152344 402.863281 533.214844 C 403.902344 539.257812 407.589844 548.542969 410.390625 555.054688 C 412.03125 559.203125 413.871094 563.273438 415.847656 567.265625 C 418.367188 572.246094 421.128906 577.097656 424.128906 581.828125 C 427.195312 586.585938 430.90625 590.910156 434.941406 594.863281 C 443.074219 602.75 452.546875 608.851562 460.308594 616.347656 C 464.167969 620.109375 467.527344 624.253906 470.257812 628.773438 C 473.066406 633.253906 474.835938 638.285156 476.441406 643.320312 L 476.511719 643.535156 C 476.523438 643.578125 476.539062 643.621094 476.554688 643.660156 C 477.203125 645.421875 479.226562 646.273438 480.960938 645.457031 C 482.507812 644.730469 483.121094 642.824219 482.527344 641.21875 " fill-opacity="1" fill-rule="nonzero"/><g clip-path="url(#3fabe30717)"><path fill="#669439" d="M 620.796875 588.460938 L 620.796875 573.234375 C 620.796875 567.785156 622.304688 563.542969 625.335938 560.515625 C 628.378906 557.484375 629.886719 554.601562 629.886719 551.875 C 629.886719 549.152344 629.050781 547.386719 627.382812 546.578125 C 625.71875 545.777344 622.722656 545.375 618.40625 545.375 L 548.71875 545.375 C 541.554688 545.375 537.972656 548.058594 537.972656 553.445312 C 537.972656 556.4375 539.273438 558.882812 541.859375 560.757812 C 544.464844 562.636719 548.117188 563.566406 552.828125 563.566406 C 554.558594 563.566406 557.488281 563.457031 561.652344 563.199219 C 565.796875 562.953125 568.851562 562.828125 570.839844 562.828125 C 582.226562 562.828125 587.917969 565.847656 587.917969 571.886719 L 587.917969 596.824219 C 587.917969 608.761719 581.21875 617.851562 567.820312 624.0625 C 554.425781 630.292969 539.898438 633.398438 524.269531 633.398438 C 511.527344 633.398438 499.773438 631.476562 488.996094 627.636719 C 488.015625 627.285156 487.105469 628.304688 487.550781 629.25 C 488.929688 632.195312 490.089844 635.15625 491.15625 638.023438 C 491.695312 639.472656 491.953125 640.96875 491.953125 642.441406 C 491.953125 643.261719 491.875 644.078125 491.71875 644.875 C 491.300781 647.03125 492.757812 649.105469 494.925781 649.5 C 504.035156 651.152344 513.488281 651.972656 523.300781 651.972656 C 538.523438 651.972656 554.375 649.210938 570.839844 643.703125 C 587.304688 638.195312 600.945312 631.546875 611.78125 623.742188 C 622.609375 615.941406 628.035156 609.5 628.035156 604.433594 C 628.035156 602.570312 626.832031 600.46875 624.414062 598.117188 C 622 595.757812 620.796875 592.542969 620.796875 588.460938 " fill-opacity="1" fill-rule="nonzero"/></g><g clip-path="url(#d4b4ab04a6)"><path fill="#669439" d="M 614.109375 439.242188 C 613.484375 436.210938 613.175781 433.953125 613.175781 432.46875 L 613.175781 417.609375 C 613.175781 406.714844 602.777344 396.839844 581.980469 387.996094 C 561.1875 379.140625 538.585938 374.707031 514.199219 374.707031 C 489.058594 374.707031 466.410156 380.683594 446.230469 392.632812 C 426.050781 404.582031 410.296875 421.207031 398.972656 442.488281 C 394.691406 450.535156 391.222656 458.820312 388.566406 467.355469 C 388.183594 468.585938 389.714844 469.480469 390.621094 468.558594 C 394.820312 464.28125 400.054688 460.625 406.507812 457.996094 C 409.558594 456.75 413.105469 457.25 415.695312 459.289062 C 418.296875 461.324219 419.621094 464.648438 419.140625 467.910156 C 417.875 476.675781 418.070312 484.601562 419.746094 491.757812 C 420.117188 493.34375 422.417969 493.164062 422.574219 491.550781 C 425.175781 464.992188 433.722656 442.941406 448.207031 425.390625 C 465.871094 403.980469 489.378906 393.285156 518.761719 393.285156 C 541.925781 393.285156 560.019531 398.792969 573.035156 409.808594 C 580.46875 416.128906 587.597656 426.332031 594.417969 440.453125 C 598.011719 448 600.738281 452.613281 602.589844 454.292969 C 604.457031 455.960938 606.429688 456.792969 608.542969 456.792969 C 610.515625 456.792969 612.097656 455.902344 613.273438 454.097656 C 614.4375 452.304688 615.03125 450.171875 615.03125 447.691406 C 615.03125 445.09375 614.722656 442.28125 614.109375 439.242188 " fill-opacity="1" fill-rule="nonzero"/></g><path fill="#669439" d="M 489.617188 539.53125 C 489.597656 539.519531 489.582031 539.542969 489.582031 539.566406 C 492.667969 551.054688 491.011719 560.765625 484.59375 568.960938 C 484.59375 568.960938 472.914062 582.9375 474.921875 597.574219 C 474.917969 597.585938 474.917969 597.601562 474.894531 597.601562 C 474.570312 597.613281 471.15625 597.585938 469.414062 592.347656 C 469.398438 592.320312 469.363281 592.320312 469.363281 592.355469 C 469.363281 593.664062 469.464844 602.605469 471.269531 610.554688 L 471.273438 610.5625 C 471.644531 612.238281 472.101562 613.867188 472.652344 615.367188 C 472.660156 615.394531 472.675781 615.417969 472.683594 615.449219 C 473.179688 616.582031 473.761719 617.609375 474.328125 618.519531 C 477.59375 614.886719 481.390625 611.554688 484.601562 607.613281 C 486.449219 605.3125 488.109375 602.851562 489.398438 600.191406 C 490.667969 597.550781 491.800781 594.867188 492.800781 592.128906 C 493.570312 589.9375 494.273438 587.710938 494.871094 585.457031 C 495.925781 581.90625 497.257812 576.863281 497.421875 573.671875 C 497.421875 573.636719 497.46875 573.636719 497.476562 573.671875 C 497.835938 576.816406 500.121094 603.066406 477.667969 619.019531 C 477.652344 619.03125 477.648438 619.046875 477.667969 619.054688 C 479.550781 619.886719 493.390625 627.460938 512.351562 602.738281 C 512.371094 602.710938 512.335938 602.675781 512.3125 602.691406 C 511.476562 603.316406 507.632812 605.972656 504.742188 604.378906 C 504.738281 604.375 504.730469 604.363281 504.734375 604.351562 C 505.292969 603.582031 517.863281 580.792969 508.792969 558.613281 C 508.777344 558.589844 508.738281 558.589844 508.734375 558.617188 C 508.585938 559.234375 507.566406 563.347656 506.03125 564.015625 C 506.015625 564.023438 505.996094 564.015625 505.992188 563.992188 C 505.984375 563.058594 505.488281 543.871094 489.617188 539.53125 " fill-opacity="1" fill-rule="nonzero"/></svg>